<?xml version="1.0" encoding="UTF-8" standalone="no"?>
<svg
   xmlns:dc="http://purl.org/dc/elements/1.1/"
   xmlns:cc="http://creativecommons.org/ns#"
   xmlns:rdf="http://www.w3.org/1999/02/22-rdf-syntax-ns#"
   xmlns:svg="http://www.w3.org/2000/svg"
   xmlns="http://www.w3.org/2000/svg"
   viewBox="0 0 512.00001 512.00001"
   version="1.1"
   id="svg70"
   width="512"
   height="512">
  <metadata
     id="metadata74">
    <rdf:RDF>
      <cc:Work
         rdf:about="">
        <dc:format>image/svg+xml</dc:format>
        <dc:type
           rdf:resource="http://purl.org/dc/dcmitype/StillImage" />
        <dc:title></dc:title>
      </cc:Work>
    </rdf:RDF>
  </metadata>
  <defs
     id="defs14">
    <style
       id="style2">.cls-1{fill:#fff;}.cls-2{fill:none;}.cls-3{fill:#f0b01f;}.cls-4{mask:url(#mask);}.cls-5{clip-path:url(#clip-path);}</style>
  </defs>
  <g
     id="Layer_2"
     data-name="Layer 2">
    <circle
       style="display:inline;fill:#f0b01f;stroke:none;stroke-width:7.10861;stroke-linecap:round;stroke-linejoin:round;paint-order:stroke markers fill"
       id="circle910"
       cx="256"
       cy="256"
       r="256" />
    <path
       id="circle912"
       style="display:inline;fill:#ffffff;stroke:none;stroke-width:6.22004;stroke-linecap:round;stroke-linejoin:round;paint-order:stroke markers fill"
       d="m 249.13867,32.105469 a 223.99998,223.99998 0 0 0 -89.46875,21.666015 l 0.0137,0.0039 c 9.17137,2.531133 17.90736,6.430927 25.91407,11.570312 1.75034,1.085861 3.49242,2.228421 5.22656,3.427735 0.60022,0.415963 1.18767,0.850267 1.78125,1.27539 7.84886,-2.67621 15.85811,-4.855541 23.98242,-6.519531 0.69078,-0.847595 1.38834,-1.689217 2.0957,-2.523438 1.62068,-1.944826 3.31909,-3.872744 5.09375,-5.785156 7.72857,-8.467903 16.22402,-16.197045 25.36133,-23.115234 z m 13.72461,0 c 9.13684,6.91795 17.63116,14.647715 25.35938,23.115234 1.77466,1.912412 3.47307,3.84033 5.09375,5.785156 0.70946,0.836704 1.40878,1.681093 2.10156,2.53125 8.12246,1.663357 16.13255,3.8363 23.98047,6.511719 0.59273,-0.424493 1.17799,-0.86003 1.77734,-1.27539 1.73414,-1.199313 3.47622,-2.341874 5.22656,-3.427735 8.00671,-5.139385 16.7427,-9.039179 25.91407,-11.570312 l 0.0137,-0.0039 A 223.99998,223.99998 0 0 0 262.86328,32.105469 Z M 256,34.630859 c -10.08452,7.230597 -19.37396,15.510138 -27.71289,24.699219 -7.07133,7.646789 -13.40417,15.944749 -18.91406,24.783203 -0.76578,1.215516 -1.50658,2.43051 -2.24805,3.767578 -0.74146,1.337068 -1.4478,2.552913 -2.14062,3.853516 -8.75175,16.348695 -14.71835,35.652685 -13.47852,57.130855 -16.65257,-19.898 -33.26855,-29.01606 -49.39844,-31.17968 -1.42215,-0.19448 -2.83219,-0.32749 -4.24219,-0.40039 -1.21552,-0.0851 -2.43096,-0.1211 -3.64648,-0.1211 h -0.62109 c -7.33367,0.15241 -14.59949,1.43981 -21.53907,3.81641 -15.947558,5.29965 -31.117716,15.47402 -44.974606,26.20703 7.53989,0.0904 15.022823,1.31978 22.195313,3.64648 10.748573,3.52699 20.995723,8.42965 30.486323,14.58594 0.004,0.003 0.009,0.005 0.0137,0.008 3.74631,-2.10614 7.62287,-3.97238 11.60547,-5.58789 1.39785,-0.58345 2.7838,-1.10515 4.18164,-1.60351 1.39784,-0.49836 2.80723,-0.94805 4.20507,-1.36133 6.85051,-2.08189 13.96724,-3.16278 21.12696,-3.20898 13.69696,0.0258 27.06054,4.22289 38.3125,12.0332 1.27224,0.85897 2.53694,1.77006 3.79297,2.73437 1.21551,0.89948 2.43011,1.86071 3.56054,2.85743 0.72175,0.60343 1.44376,1.1865 2.1543,1.86718 0.001,-0.54921 0.0281,-1.09727 0.0684,-1.64062 0.041,-0.55306 0.0942,-1.10146 0.13672,-1.64844 0.0608,-0.88125 0.13284,-1.75417 0.21484,-2.61719 0.082,-0.86301 0.17429,-1.71771 0.27149,-2.5625 l 0.0684,-0.0371 c 0.19333,-1.67588 0.43269,-3.60426 0.70898,-5.25 2.17347,-14.58212 7.12482,-28.61028 14.58594,-41.32617 0.86302,-1.45862 1.72639,-2.84544 2.60156,-4.1582 0.53482,-0.83871 1.08193,-1.64156 1.62891,-2.43164 0.3525,-0.49837 0.69242,-0.98298 1.04492,-1.45703 11.04837,-15.267065 22.31652,-22.280546 22.80273,-22.572269 L 256,85.511719 l 3.14844,1.945312 c 0.48621,0.291723 11.75446,7.305004 22.80273,22.572269 0.3525,0.47405 0.69242,0.95866 1.04492,1.45703 0.54698,0.79008 1.09409,1.59293 1.62891,2.43164 0.87517,1.31276 1.73854,2.69958 2.60156,4.1582 7.46112,12.71589 12.41247,26.74405 14.58594,41.32617 0.27629,1.64574 0.51565,3.57412 0.70898,5.25 l 0.0684,0.0371 c 0.0972,0.84479 0.18949,1.69949 0.27149,2.5625 0.082,0.86302 0.15404,1.73594 0.21484,2.61719 0.0425,0.54698 0.0957,1.09538 0.13672,1.64844 0.0403,0.54335 0.0674,1.09141 0.0684,1.64062 0.71054,-0.68068 1.43255,-1.26375 2.1543,-1.86718 1.13043,-0.99672 2.34503,-1.95795 3.56054,-2.85743 1.25603,-0.96431 2.52073,-1.8754 3.79297,-2.73437 11.25196,-7.81031 24.61554,-12.0074 38.3125,-12.0332 7.15972,0.0462 14.27645,1.12709 21.12696,3.20898 1.39784,0.41328 2.80723,0.86297 4.20507,1.36133 1.39784,0.49836 2.78379,1.02006 4.18164,1.60351 3.9826,1.61551 7.85916,3.48175 11.60547,5.58789 0.005,-0.003 0.01,-0.005 0.0137,-0.008 9.49061,-6.15629 19.73775,-11.05895 30.48632,-14.58594 7.17249,-2.3267 14.65543,-3.55608 22.19532,-3.64648 -13.85689,-10.73301 -29.02704,-20.90738 -44.97461,-26.20703 -6.93958,-2.3766 -14.2054,-3.664 -21.53907,-3.81641 h -0.62109 c -1.21552,0 -2.43096,0.036 -3.64648,0.1211 -1.41,0.0729 -2.82004,0.20591 -4.24219,0.40039 -16.12989,2.16362 -32.74587,11.28168 -49.39844,31.17968 1.23983,-21.47817 -4.7268,-40.78216 -13.47852,-57.130855 -0.69283,-1.300603 -1.39916,-2.516448 -2.14062,-3.853516 -0.74147,-1.337068 -1.48227,-2.552062 -2.24805,-3.767578 C 297.11696,75.275027 290.78422,66.976867 283.71289,59.330078 275.37406,50.140797 266.08452,41.861456 256,34.630859 Z m 106.26562,24.179688 c 4.44183,9.566231 7.94439,19.542118 10.44727,29.789062 0.81439,3.208963 1.5806,6.440764 2.27344,9.722657 0.11619,0.526954 0.21354,1.066268 0.32617,1.595703 5.03631,3.849861 9.88304,7.941641 14.52344,12.259761 0.60118,0.10545 1.20413,0.19743 1.80273,0.31836 3.46951,0.69271 6.89222,1.60205 10.24805,2.72266 18.09904,6.00465 34.51928,17.67328 46.82031,27.1543 l 0.26758,0.20703 0.3457,0.26758 A 223.99998,223.99998 0 0 0 362.26562,58.810547 Z m -212.53124,0.002 A 223.99998,223.99998 0 0 0 62.683594,142.84575 l 0.341797,-0.26562 0.267578,-0.20703 c 12.30103,-9.48102 28.721274,-21.14965 46.820311,-27.1543 3.35583,-1.12061 6.77854,-2.02995 10.24805,-2.72266 0.5986,-0.12093 1.20155,-0.21291 1.80273,-0.31836 4.64009,-4.31794 9.48575,-8.40824 14.52149,-12.257811 0.11278,-0.530188 0.21176,-1.069956 0.32812,-1.597656 0.69284,-3.281893 1.45905,-6.513694 2.27344,-9.722657 2.50274,-10.246368 6.0058,-20.221369 10.44727,-29.787109 z m 7.79687,3.179688 c -4.31149,9.213711 -7.70277,18.82899 -10.125,28.708984 -1.75034,6.78258 -3.22178,13.846261 -4.38867,20.957031 14.963,2.04207 29.28274,9.46714 42.67773,22.13282 1.56006,-15.77744 6.29849,-31.07567 13.92969,-44.972664 0.26155,-0.487437 0.52396,-0.986639 0.79688,-1.474609 C 194.4571,81.825368 187.98762,76.877628 181.09961,72.566406 173.81478,67.885542 165.87103,64.32185 157.53125,61.992188 Z m 196.9375,0 c -8.33978,2.329664 -16.28353,5.893354 -23.56836,10.574218 -6.88801,4.311222 -13.3575,9.258962 -19.32227,14.777344 0.27292,0.48797 0.53533,0.987172 0.79688,1.474609 7.6312,13.896994 12.36963,29.195224 13.92969,44.972664 13.39499,-12.66568 27.71473,-20.09075 42.67773,-22.13282 -1.16689,-7.11077 -2.63833,-14.174451 -4.38867,-20.957031 -2.42223,-9.879994 -5.81351,-19.495272 -10.125,-28.708984 z M 256,92.634766 c 0,0 -11.72986,7.171505 -22.66992,23.337894 -0.9238,1.33707 -1.82318,2.74602 -2.72266,4.21679 -0.89948,1.47078 -1.80993,3.06457 -2.69726,4.69336 -5.14185,9.59295 -8.80588,19.90664 -10.86719,30.59375 -0.34034,1.77465 -0.65598,3.6463 -0.93555,5.44532 -0.27957,1.79893 -0.48759,3.48813 -0.66992,5.2871 -0.76528,7.35673 -0.92244,14.76375 -0.47266,22.14649 -0.0346,-0.0421 -0.0707,-0.083 -0.10546,-0.125 0.003,0.054 0.005,0.10811 0.008,0.16211 -0.52302,-0.6354 -1.05501,-1.26327 -1.59375,-1.88477 -1.07749,-1.243 -2.18555,-2.4588 -3.32422,-3.64453 -1.13868,-1.18572 -2.30632,-2.34255 -3.50391,-3.46875 -0.59879,-0.5631 -1.20526,-1.11822 -1.81836,-1.66601 -0.61309,-0.5478 -1.2342,-1.08695 -1.86133,-1.61914 -0.62709,-0.53221 -1.2615,-1.05788 -1.90234,-1.57422 -1.21552,-0.98457 -2.43096,-1.90847 -3.64648,-2.77149 -0.60776,-0.4315 -1.26637,-0.88619 -1.93946,-1.33594 -0.67309,-0.44974 -1.35903,-0.89358 -2.02148,-1.30078 l 0.0801,-0.0469 c -9.68742,-6.0955 -20.89405,-9.33953 -32.33985,-9.36133 -7.05437,0.0479 -14.06013,1.17431 -20.77343,3.3418 -1.38569,0.43758 -2.77252,0.92502 -4.15821,1.43554 -1.38569,0.51051 -2.74605,1.06847 -4.10742,1.66407 -2.13931,0.9238 -4.2433,1.93338 -6.33398,3.02734 -1.02103,0.52673 -2.02866,1.07339 -3.02539,1.64062 -0.98457,0.54698 -1.95771,1.11968 -2.91797,1.70313 -13.27161,8.29581 -25.145257,18.64158 -35.177737,30.6543 44.692017,3.44624 69.055317,14.05183 82.658207,27.19726 -1.26314,0.94182 -2.50387,1.90738 -3.73243,2.88672 -15.1838,12.12427 -27.63825,27.16715 -36.35351,44.21485 l 6.09766,5.16015 40.98828,-34.67969 40.98632,34.67969 40.73243,-34.52148 0.12109,-0.10938 0.12109,0.10938 40.73243,34.52148 40.98632,-34.67969 40.98828,34.67969 6.08985,-5.15234 c -8.89993,-17.41221 -21.69341,-32.74013 -37.31836,-44.9961 -0.0423,-0.0331 -0.0827,-0.0685 -0.125,-0.10156 -0.87045,-0.67936 -1.7477,-1.3503 -2.63477,-2.01172 13.60289,-13.14543 37.96619,-23.75102 82.65821,-27.19726 -10.03248,-12.01272 -21.90613,-22.35849 -35.17774,-30.6543 -0.96026,-0.58345 -1.9334,-1.15615 -2.91797,-1.70313 -0.99673,-0.56723 -2.00436,-1.11389 -3.02539,-1.64062 -2.09068,-1.09396 -4.19467,-2.10354 -6.33398,-3.02734 -1.36137,-0.5956 -2.72173,-1.15356 -4.10742,-1.66407 -1.38569,-0.51052 -2.77252,-0.99796 -4.15821,-1.43554 -6.7133,-2.16749 -13.71906,-3.2939 -20.77343,-3.3418 -11.4458,0.0218 -22.65243,3.26583 -32.33985,9.36133 l 0.0801,0.0469 c -0.66245,0.4072 -1.34839,0.85104 -2.02148,1.30078 -0.67309,0.44975 -1.3317,0.90444 -1.93946,1.33594 -1.21552,0.86302 -2.43096,1.78692 -3.64648,2.77149 -0.64084,0.51634 -1.27526,1.04201 -1.90234,1.57422 -0.62712,0.53219 -1.24824,1.07134 -1.86133,1.61914 -0.6131,0.54779 -1.21957,1.10291 -1.81836,1.66601 -1.19759,1.1262 -2.36523,2.28303 -3.50391,3.46875 -1.13867,1.18573 -2.24673,2.40153 -3.32422,3.64453 -0.53874,0.6215 -1.07073,1.24937 -1.59375,1.88477 0.003,-0.054 0.005,-0.10811 0.008,-0.16211 -0.0348,0.042 -0.0709,0.0829 -0.10546,0.125 0.44978,-7.38274 0.29262,-14.78976 -0.47266,-22.14649 -0.18233,-1.79897 -0.39035,-3.48817 -0.66992,-5.2871 -0.27957,-1.79901 -0.59521,-3.67067 -0.93555,-5.44532 -2.06131,-10.68711 -5.72534,-21.0008 -10.86719,-30.59375 -0.88733,-1.62879 -1.79778,-3.22258 -2.69726,-4.69336 -0.89948,-1.47077 -1.79886,-2.87972 -2.72266,-4.21679 C 267.72986,99.806271 256,92.634766 256,92.634766 Z M 56.949219,153.26367 A 223.99998,223.99998 0 0 0 32,256 223.99998,223.99998 0 0 0 256,480 223.99998,223.99998 0 0 0 480,256 223.99998,223.99998 0 0 0 455.05078,153.26367 h -10.0625 c -6.43426,0.0863 -12.82339,1.08918 -18.97461,2.97852 l -0.64258,0.19336 c 17.73078,30.16144 27.09938,64.53212 27.09961,99.56445 -2.2e-4,50.14086 -19.17099,98.38432 -53.58593,134.84961 v -55.5 c 0,-6.36846 -0.4766,-12.63229 -1.39258,-18.76367 l -18.66407,15.79687 -40.98828,-34.6914 -40.98632,34.6914 L 256,297.80078 l -40.85352,34.58203 -40.98632,-34.6914 -40.98828,34.6914 -18.67383,-15.80664 c -0.91695,6.13451 -1.39453,12.40159 -1.39453,18.77344 v 55.48828 C 78.69562,354.37372 59.529346,306.1352 59.529297,256 c 4.17e-4,-35.02582 9.368702,-69.39679 27.103515,-99.56445 l -0.646484,-0.19336 c -6.15122,-1.88934 -12.540349,-2.89222 -18.974609,-2.97852 z m 117.210941,102.60156 -37.11133,31.34961 c -2.26612,1.91778 -5.58544,1.91778 -7.85156,0 l -4.82813,-4.08398 c -3.80447,8.42419 -6.71683,17.28673 -8.625,26.48828 L 133.17188,324.37305 170.23242,293 c 1.13306,-0.95889 2.53089,-1.4375 3.92774,-1.4375 1.39685,0 2.79272,0.47861 3.92578,1.4375 l 37.06054,31.37305 36.92774,-31.26367 c 1.13306,-0.95889 2.52925,-1.4375 3.92578,-1.4375 1.39653,0 2.79272,0.47861 3.92578,1.4375 L 296.85352,324.37305 333.91406,293 c 1.13306,-0.95889 2.52893,-1.4375 3.92578,-1.4375 1.39685,0 2.79468,0.47861 3.92774,1.4375 l 37.06054,31.37305 17.41797,-14.74414 c -1.90758,-9.20241 -4.82086,-18.06523 -8.625,-26.49024 l -4.81836,4.07617 c -2.26612,1.91778 -5.58544,1.91778 -7.85156,0 l -37.11133,-31.34961 -37.01172,31.34961 c -2.26611,1.91778 -5.58544,1.91778 -7.85156,0 L 256,255.97461 219.02344,287.21484 c -2.26612,1.91778 -5.58547,1.91778 -7.85156,0 z m 71.65625,89.09571 c 0.27121,-9.5e-4 0.48133,0.038 0.625,0.12109 4.59718,2.65793 4.59718,85.887 0,88.54492 -4.56297,2.65793 -76.68164,-38.95758 -76.68164,-44.27343 0,-5.14974 67.64907,-44.36318 76.05664,-44.39258 z m 80.13671,0 c 0.27121,-9.5e-4 0.48134,0.038 0.625,0.12109 4.5972,2.65793 4.60861,85.887 0,88.54492 -4.56296,2.65793 -76.66992,-38.95758 -76.66992,-44.27343 0,-5.14974 67.63802,-44.36318 76.04492,-44.39258 z" />
  </g>
</svg>
